<svg width="64" height="64" viewBox="0 0 64 64" fill="none" xmlns="http://www.w3.org/2000/svg">
  <defs>
    <linearGradient id="grad" x1="0" y1="0" x2="64" y2="64">
      <stop stop-color="#38BDF8"/>
      <stop offset="0.5" stop-color="#8B5CF6"/>
      <stop offset="1" stop-color="#FB7185"/>
    </linearGradient>

    <filter id="glow">
      <feGaussianBlur stdDeviation="2.5" result="blur"/>
      <feMerge>
        <feMergeNode in="blur"/>
        <feMergeNode in="SourceGraphic"/>
      </feMerge>
    </filter>
  </defs>

  <rect
    x="4"
    y="4"
    width="56"
    height="56"
    rx="18"
    fill="#0F172A"
  />

  <g filter="url(#glow)">
    <path
      d="M14 46C24 28 40 28 50 46"
      stroke="url(#grad)"
      stroke-width="6"
      stroke-linecap="round"
      opacity="0.35"
    />

    <path
      d="M18 34C26 18 38 18 46 34"
      stroke="url(#grad)"
      stroke-width="6"
      stroke-linecap="round"
      opacity="0.35"
    />

    <path
      d="M22 22C28 10 36 10 42 22"
      stroke="url(#grad)"
      stroke-width="6"
      stroke-linecap="round"
      opacity="0.35"
    />
  </g>

  <path
    d="M14 46C24 28 40 28 50 46"
    stroke="url(#grad)"
    stroke-width="5"
    stroke-linecap="round"
  />

  <path
    d="M18 34C26 18 38 18 46 34"
    stroke="url(#grad)"
    stroke-width="5"
    stroke-linecap="round"
    opacity="0.95"
  />

  <path
    d="M22 22C28 10 36 10 42 22"
    stroke="url(#grad)"
    stroke-width="5"
    stroke-linecap="round"
    opacity="0.85"
  />

  <circle
    cx="48"
    cy="46"
    r="3"
    fill="#FB7185"
  />
</svg>